<svg xmlns="http://www.w3.org/2000/svg" viewBox="0 0 420 100" width="210" height="50">
  <circle cx="46" cy="50" r="43" fill="none" stroke="#94A3B8" stroke-width="3" opacity="0.7"/>
  <g transform="translate(5,10) scale(0.02556)">
    <path fill="#10253F" opacity="1.000000" stroke="none" 
	d="
M148.368530,1667.235596 
	C147.668976,1620.698242 146.561584,1575.104248 146.522675,1529.509521 
	C146.504303,1507.985107 148.494400,1486.457031 149.650238,1464.934692 
	C150.432785,1450.362793 150.593613,1435.706909 152.342392,1421.246948 
	C157.869751,1375.543335 163.692947,1329.892944 173.341965,1284.781982 
	C182.990494,1239.672974 192.990829,1194.679199 205.914642,1150.379150 
	C227.341766,1076.931519 253.124573,1005.073425 286.172729,936.015930 
	C329.499176,845.480896 380.715668,759.717957 442.323700,680.270996 
	C474.338409,638.986328 508.293030,599.488647 544.344177,561.655212 
	C632.413391,469.232208 729.690918,388.069000 837.493530,319.641632 
	C871.741455,297.902924 907.241333,278.344482 943.266113,259.649597 
	C984.872498,238.058105 1026.967041,217.646591 1070.845093,201.095718 
	C1123.040405,181.407593 1174.628418,159.754089 1228.700684,145.673264 
	C1276.251099,133.290817 1324.323608,122.878342 1372.276245,112.088135 
	C1407.609253,104.137566 1443.596436,100.119232 1479.556519,96.312363 
	C1496.043457,94.567009 1512.680908,94.199554 1529.257690,93.355965 
	C1556.452026,91.972038 1583.640747,90.185249 1610.854370,89.581230 
	C1628.765503,89.183701 1646.715942,90.570297 1664.649292,91.146721 
	C1674.957031,91.478035 1685.263672,91.881180 1695.574219,92.089844 
	C1744.465698,93.079330 1792.721802,99.997444 1840.994019,107.106583 
	C1884.080322,113.451958 1926.859863,121.233078 1969.180786,131.498047 
	C2007.286499,140.740555 2044.509277,152.847183 2081.642822,165.394684 
	C2159.564697,191.724564 2234.964844,223.837646 2307.852539,261.894562 
	C2390.943604,305.279083 2468.486816,357.061707 2542.115234,415.025116 
	C2594.759521,456.469177 2644.490234,501.008942 2690.911621,549.240723 
	C2723.654053,583.260193 2754.113037,619.343201 2782.459961,657.062012 
	C2807.619873,690.540161 2831.956299,724.686157 2855.443604,759.358643 
	C2880.063232,795.702881 2902.016357,833.724854 2922.275391,872.721985 
	C2956.178955,937.983337 2985.836182,1005.098083 3011.457520,1074.016846 
	C3026.058105,1113.291626 3037.671631,1153.467529 3047.794434,1194.093872 
	C3053.813477,1218.249756 3060.577393,1242.258789 3065.514648,1266.635864 
	C3071.694092,1297.148438 3077.064209,1327.868164 3081.450439,1358.688354 
	C3085.835693,1389.502441 3089.021484,1420.509399 3091.891357,1451.509644 
	C3094.061768,1474.955933 3095.272461,1498.509888 3096.238037,1522.043457 
	C3097.164551,1544.628174 3098.155273,1567.278076 3097.436768,1589.845703 
	C3096.487305,1619.667480 3094.326416,1649.471191 3091.930176,1679.221802 
	C3086.788818,1743.052979 3076.749512,1806.194824 3065.226807,1869.167969 
	C3056.591064,1916.364502 3041.676758,1961.732544 3027.959229,2007.486572 
	C3009.307373,2069.697754 2984.358643,2129.499512 2957.710449,2188.578125 
	C2930.020996,2249.964355 2895.536133,2307.529053 2858.158691,2363.522217 
	C2816.734619,2425.578125 2770.284912,2483.669189 2722.444336,2540.752197 
	C2698.031494,2569.881104 2671.314697,2596.854492 2643.914307,2623.086182 
	C2577.502197,2686.665527 2507.203125,2745.494873 2429.746826,2795.397705 
	C2386.963867,2822.961426 2343.115479,2848.637695 2297.916992,2872.082031 
	C2230.890381,2906.848389 2161.742188,2936.645996 2090.738525,2962.211914 
	C2032.511353,2983.177734 1972.935181,2999.357910 1912.290894,3011.535400 
	C1871.276855,3019.771240 1830.257812,3028.119629 1788.995117,3034.927002 
	C1765.159668,3038.859375 1740.875854,3040.485596 1716.721558,3041.973145 
	C1684.569214,3043.953125 1652.353149,3045.637451 1620.152100,3045.898682 
	C1579.963867,3046.224609 1539.832642,3044.003174 1499.764038,3040.301514 
	C1466.717163,3037.248535 1433.720947,3034.208740 1401.020264,3028.319336 
	C1345.733887,3018.362305 1290.964355,3006.110352 1236.753662,2991.443848 
	C1169.869019,2973.348389 1105.763672,2947.635254 1042.692383,2919.260498 
	C983.229614,2892.508789 925.343872,2862.657959 869.693604,2828.648193 
	C805.205811,2789.236816 742.956421,2746.559570 685.283447,2697.586182 
	C661.729980,2677.585693 639.073364,2656.506104 616.432861,2635.460693 
	C600.094543,2620.273682 584.085144,2604.692627 568.574524,2588.662598 
	C514.915405,2533.206543 462.867096,2476.344727 417.491669,2413.706787 
	C391.126617,2377.311768 367.330414,2339.273682 344.702850,2300.508057 
	C328.789124,2273.244385 312.958344,2245.875977 298.568634,2217.796631 
	C286.456696,2194.161865 276.055023,2169.614014 265.660065,2145.145752 
	C253.063538,2115.495605 241.031052,2085.598389 229.190079,2055.635986 
	C214.635117,2018.806152 204.243576,1980.633545 194.344177,1942.372803 
	C186.034882,1910.257812 178.104950,1878.007568 171.368378,1845.534790 
	C166.460266,1821.875854 163.490326,1797.795898 160.165222,1773.833008 
	C156.659622,1748.569092 153.655029,1723.233643 150.663605,1697.901978 
	C149.885880,1691.316284 150.059174,1684.622803 149.628098,1677.989624 
	C149.414734,1674.706543 148.820648,1671.448120 148.368530,1667.235596 
M1195.615845,1140.016479 
	C1195.546753,1111.695312 1195.732300,1083.370239 1195.280762,1055.055176 
	C1195.104614,1044.004272 1199.071899,1036.123169 1208.083740,1029.728394 
	C1230.081909,1014.119019 1251.691528,997.963013 1273.494019,982.077026 
	C1285.066895,973.644775 1296.720825,965.323547 1308.328613,956.939087 
	C1315.600586,951.686340 1323.050537,949.619690 1331.536987,954.499268 
	C1334.318848,956.098755 1337.771362,956.851013 1341.011475,957.282532 
	C1362.789429,960.182678 1384.572754,963.064758 1406.396484,965.589600 
	C1417.230713,966.843018 1428.154175,967.325989 1439.626099,968.202454 
	C1440.321533,964.518982 1441.302734,961.662109 1441.329102,958.796570 
	C1441.479126,942.474365 1441.368774,926.149963 1441.417236,909.826538 
	C1441.436279,903.420593 1438.919800,898.297913 1434.287964,893.958435 
	C1419.945801,880.521484 1405.996460,866.647949 1391.327881,853.580017 
	C1358.493774,824.328430 1325.319702,795.458374 1292.273926,766.444519 
	C1290.322510,764.731262 1288.281494,763.120117 1286.016113,761.240662 
	C1282.985596,763.337524 1280.177490,765.063416 1277.606934,767.090698 
	C1226.345337,807.519653 1175.123901,847.999634 1123.857788,888.422729 
	C1116.163452,894.489685 1113.346558,902.250488 1113.419067,911.991394 
	C1113.821045,965.967468 1113.841553,1019.946289 1114.062012,1073.923828 
	C1114.154541,1096.572388 1114.418091,1119.219971 1114.217163,1143.719849 
	C1114.091064,1204.643677 1114.116455,1265.568237 1113.795044,1326.490967 
	C1113.489624,1384.405151 1112.795654,1442.317017 1112.334839,1500.230469 
	C1112.242798,1511.803467 1113.127686,1512.699097 1124.790161,1512.702271 
	C1146.428101,1512.708130 1168.066040,1512.551147 1189.703613,1512.403931 
	C1191.261963,1512.393188 1192.817261,1511.911255 1195.688232,1511.426514 
	C1195.688232,1505.564575 1195.688232,1499.971802 1195.688232,1494.378906 
	C1195.688232,1380.517578 1195.692139,1266.656372 1195.671021,1152.795044 
	C1195.670288,1149.144165 1195.414673,1145.493408 1195.615845,1140.016479 
M916.520813,1113.326782 
	C936.532288,1128.823242 956.512207,1144.360718 976.582336,1159.781006 
	C980.527893,1162.812378 984.614075,1165.783813 988.997437,1168.096802 
	C998.136902,1172.919312 1002.218262,1170.371582 1001.869385,1160.290649 
	C1001.627808,1153.309814 1000.625244,1146.340454 1000.648621,1139.368286 
	C1000.707825,1121.720825 1001.474426,1104.073120 1001.387939,1086.428223 
	C1001.054688,1018.482422 1000.514221,950.537537 999.994934,882.592773 
	C999.951721,876.952393 999.488831,871.315247 999.719666,864.321960 
	C1001.183655,857.124390 1006.819702,853.299316 1012.042542,849.179443 
	C1059.655273,811.621643 1107.186401,773.959106 1154.937744,736.578369 
	C1195.340088,704.950623 1236.068237,673.739136 1276.500244,642.148865 
	C1285.455688,635.151672 1294.791382,632.147461 1306.229858,634.255066 
	C1312.982056,635.499207 1320.147583,635.249878 1327.054565,634.721436 
	C1336.455444,634.002319 1337.679565,632.381897 1337.731323,622.795654 
	C1337.841064,602.464050 1337.755493,582.131470 1337.774902,561.799255 
	C1337.780029,556.467285 1337.643555,551.120300 1337.988403,545.807251 
	C1338.428101,539.036072 1339.564941,538.044373 1346.464600,537.206482 
	C1348.442993,536.966309 1350.452759,536.947754 1352.449707,536.903320 
	C1372.102661,536.465698 1391.755615,536.031921 1411.409180,535.622498 
	C1422.334229,535.394958 1423.585083,536.453857 1423.630371,547.316956 
	C1423.734619,572.313293 1423.663940,597.310303 1423.664185,622.307068 
	C1423.664307,625.582336 1423.664185,628.857544 1423.664185,632.339722 
	C1441.263672,636.317932 1458.686523,630.519165 1475.756958,634.574280 
	C1475.984741,638.075623 1476.315430,640.700684 1476.302124,643.324097 
	C1476.116821,679.647583 1476.284302,715.979797 1475.463623,752.289551 
	C1475.141235,766.544678 1479.878052,777.149536 1490.769775,786.163696 
	C1510.020874,802.096252 1528.557617,818.889709 1547.714966,834.939026 
	C1554.961914,841.010376 1557.991821,847.902161 1557.980713,857.429443 
	C1557.869263,953.754150 1558.156372,1050.079224 1558.217163,1146.404297 
	C1558.284546,1253.065063 1558.209839,1359.725708 1558.248901,1466.386475 
	C1558.258423,1492.382324 1558.394287,1518.378784 1558.612427,1544.373779 
	C1558.822021,1569.360596 1559.284058,1594.344971 1559.495361,1619.331665 
	C1559.596313,1631.261597 1558.859253,1632.200073 1547.451538,1632.247437 
	C1511.795532,1632.395752 1476.138672,1632.270630 1440.482056,1632.294922 
	C1291.828247,1632.396118 1143.174438,1632.480713 994.520569,1632.635376 
	C886.533203,1632.747803 778.546021,1632.968140 670.558716,1633.125610 
	C610.563660,1633.213013 550.568542,1633.270142 490.573486,1633.343018 
	C488.573792,1633.345459 486.570923,1633.301636 484.574982,1633.395386 
	C475.119934,1633.839355 473.907013,1634.857300 474.439819,1644.015503 
	C476.026123,1671.282104 477.785095,1698.539185 479.602966,1725.791504 
	C480.156860,1734.094727 481.805481,1735.483032 490.022522,1735.543579 
	C503.018311,1735.639404 516.014465,1735.714844 529.010559,1735.738892 
	C602.003967,1735.874023 674.997803,1736.213501 747.990723,1736.073242 
	C976.625549,1735.633789 1205.260132,1735.021729 1433.894775,1734.449219 
	C1470.555786,1734.357422 1507.217163,1734.213745 1543.877075,1733.921143 
	C1562.219360,1733.774780 1562.223389,1733.598145 1562.231812,1751.885498 
	C1562.352661,2011.868286 1562.470825,2271.851074 1562.594604,2531.833740 
	C1562.598877,2540.832031 1562.635254,2549.830322 1562.689087,2558.828613 
	C1562.812622,2579.486084 1563.148315,2600.144775 1563.053467,2620.801025 
	C1562.822266,2671.119141 1562.438110,2721.437256 1561.993774,2771.753906 
	C1561.937012,2778.175781 1564.335815,2782.544922 1570.262451,2785.150391 
	C1582.747314,2790.639160 1595.198242,2796.207520 1607.603760,2801.873047 
	C1612.530518,2804.122803 1617.317139,2803.973145 1622.044922,2801.656006 
	C1633.992188,2795.800049 1645.965698,2789.989258 1657.779297,2783.871826 
	C1664.942749,2780.162354 1668.348267,2774.106201 1667.686768,2765.823730 
	C1667.106201,2758.552979 1666.524292,2751.255371 1666.522583,2743.969482 
	C1666.463257,2496.316650 1666.473633,2248.663574 1666.470093,2001.010742 
	C1666.469971,1996.678101 1666.410767,1992.345337 1666.397461,1988.012695 
	C1666.153564,1908.356567 1665.894897,1828.700317 1665.690918,1749.044189 
	C1665.662720,1738.018921 1666.404297,1737.427734 1677.783203,1737.416138 
	C1678.116211,1737.415771 1678.449341,1737.451904 1678.782349,1737.452026 
	C1792.437256,1737.465454 1906.092407,1737.559448 2019.747192,1737.467896 
	C2150.400146,1737.362671 2281.052979,1737.095581 2411.705811,1736.894287 
	C2503.361328,1736.753052 2595.017090,1736.613525 2686.672607,1736.451660 
	C2707.669189,1736.414551 2728.666260,1736.327271 2749.662598,1736.186523 
	C2759.748047,1736.118896 2761.299316,1734.777588 2761.688232,1724.770508 
	C2762.723633,1698.136963 2763.572021,1671.495850 2764.456543,1644.856567 
	C2764.575684,1641.268188 2764.472656,1637.672363 2764.472656,1633.386963 
	C2758.885986,1633.099976 2754.271240,1632.648804 2749.657227,1632.658691 
	C2695.333740,1632.775269 2641.010498,1633.080322 2586.687012,1633.107910 
	C2351.701416,1633.227173 2116.716064,1633.257690 1881.730469,1633.350708 
	C1823.069824,1633.373901 1764.409302,1633.500610 1705.748657,1633.603760 
	C1695.418579,1633.621948 1685.085449,1633.951904 1674.759644,1633.779907 
	C1666.614014,1633.644287 1665.421997,1632.288696 1665.459106,1624.378906 
	C1665.491943,1617.383667 1665.984863,1610.387817 1665.927856,1603.395020 
	C1665.490723,1549.749146 1664.624146,1496.104370 1664.548828,1442.458374 
	C1664.412231,1345.135620 1664.693604,1247.812012 1664.874268,1150.489014 
	C1664.976440,1095.500732 1665.327637,1040.512939 1665.370483,985.524658 
	C1665.396118,952.534912 1665.131470,919.544189 1664.830322,886.555420 
	C1664.626709,864.231445 1664.309937,841.905029 1663.671631,819.590332 
	C1663.449585,811.829102 1665.823242,805.965698 1672.519653,801.923157 
	C1674.225098,800.893494 1675.751831,799.571838 1677.391113,798.427979 
	C1758.792480,741.630981 1840.185669,684.822205 1921.609497,628.057312 
	C1943.741943,612.627625 1965.960571,597.321350 1988.158447,581.985718 
	C1991.901001,579.400146 1995.500977,575.979187 2001.267944,579.049866 
	C2001.512207,581.440186 2001.973999,584.024170 2002.010620,586.614197 
	C2002.424683,615.931580 2003.085205,645.250000 2003.080566,674.567993 
	C2003.067261,757.555420 2002.675781,840.542786 2002.611206,923.530273 
	C2002.462036,1115.183105 2002.413696,1306.835938 2002.339844,1498.488770 
	C2002.334595,1512.199829 2003.545288,1513.445679 2016.999146,1513.473267 
	C2041.664307,1513.523804 2066.330322,1513.573730 2090.994629,1513.412720 
	C2095.783691,1513.381592 2100.566650,1512.386230 2105.939941,1511.767944 
	C2105.939941,1287.033813 2105.939941,1063.496582 2105.939941,839.246155 
	C2111.239258,838.835327 2115.841553,838.188660 2120.447266,838.164307 
	C2208.764160,837.697510 2297.081543,837.290405 2385.398682,836.907654 
	C2401.513672,836.837769 2401.524902,836.912109 2401.525391,852.814697 
	C2401.528809,958.808777 2401.527100,1064.802856 2401.527100,1170.796997 
	C2401.527100,1174.695557 2401.526855,1178.593994 2401.526855,1183.232544 
	C2407.501709,1183.511963 2412.425781,1183.944336 2417.349854,1183.942139 
	C2489.343750,1183.910889 2561.337891,1183.807129 2633.331787,1183.757324 
	C2650.210693,1183.745605 2650.598877,1184.167114 2650.584961,1201.327637 
	C2650.509521,1295.653442 2650.420166,1389.979370 2650.316406,1484.305176 
	C2650.309326,1490.636841 2650.118652,1496.967896 2650.063721,1503.299683 
	C2649.971924,1513.914917 2650.407471,1514.328613 2661.419189,1514.456787 
	C2663.085449,1514.476196 2664.752441,1514.463867 2666.418945,1514.458984 
	C2694.748535,1514.375610 2723.078125,1514.296997 2751.407715,1514.204468 
	C2764.677979,1514.161133 2764.969238,1514.088135 2764.273926,1500.719116 
	C2762.855713,1473.440186 2761.622070,1446.137817 2759.414307,1418.917847 
	C2757.396973,1394.041992 2755.406250,1369.059326 2751.286865,1344.478394 
	C2739.314209,1273.039307 2719.970215,1203.454956 2692.670898,1136.385986 
	C2624.697754,969.389343 2523.089844,826.095032 2387.244629,707.298950 
	C2267.316406,602.422241 2131.949219,523.635437 1982.529053,468.929199 
	C1897.390503,437.757996 1809.463745,418.363983 1719.138672,410.382538 
	C1666.305786,405.713989 1613.377563,405.026886 1560.351807,407.639587 
	C1512.013916,410.021271 1464.031860,415.100006 1416.617554,424.600464 
	C1275.910278,452.794159 1144.113647,503.829346 1022.393372,580.166748 
	C961.357117,618.445923 902.492432,659.678040 848.912903,708.155457 
	C785.607056,765.432922 730.382141,829.697754 680.292847,898.699280 
	C606.076477,1000.937439 548.672058,1111.335938 515.115540,1233.537476 
	C504.808105,1271.073608 495.048553,1308.719116 489.451416,1347.375122 
	C483.764801,1386.649048 480.282013,1426.075073 478.401123,1465.676147 
	C477.784821,1478.652222 477.230530,1491.631592 476.708649,1504.611816 
	C476.399170,1512.308594 478.607025,1514.706909 486.434479,1515.312378 
	C488.091492,1515.440552 489.766205,1515.343384 491.432770,1515.343506 
	C512.764893,1515.344360 534.097229,1515.391968 555.429138,1515.321655 
	C564.423523,1515.291870 573.427795,1515.226562 582.407410,1514.775879 
	C588.924011,1514.448975 590.469360,1512.744141 591.222046,1506.292969 
	C591.529358,1503.658569 591.416260,1500.968384 591.400146,1498.304077 
	C591.231323,1470.313599 590.834961,1442.322754 590.903259,1414.332886 
	C591.055298,1352.013062 591.541931,1289.694092 591.604004,1227.374390 
	C591.612610,1218.726562 594.738953,1213.040649 602.073364,1208.572876 
	C615.432983,1200.434448 628.881042,1192.307129 641.460938,1183.046021 
	C701.020386,1139.198853 760.297485,1094.968384 819.682739,1050.884521 
	C821.729370,1049.365112 823.855835,1047.953369 826.062683,1046.409180 
	C853.335388,1066.589600 880.091187,1086.414673 906.891663,1106.179321 
	C909.805176,1108.327881 912.977295,1110.125854 916.520813,1113.326782 
M2425.000244,2160.884521 
	C2402.340576,2161.035889 2379.680908,2161.274170 2357.020996,2161.321045 
	C2305.691162,2161.427246 2254.355713,2161.057129 2203.035156,2161.768311 
	C2190.792236,2161.937988 2184.646240,2158.114014 2179.994629,2146.630127 
	C2157.552979,2091.225342 2072.531738,2042.894531 1996.664795,2099.707520 
	C1974.856567,2116.038574 1963.191162,2138.899902 1956.407349,2164.667236 
	C1954.905762,2170.371094 1953.387085,2176.070557 1951.704102,2182.421143 
	C1939.201294,2183.478271 1927.307983,2185.156982 1915.389648,2185.361328 
	C1883.735596,2185.904541 1852.070435,2185.773193 1820.410156,2185.994873 
	C1811.117188,2186.060059 1810.176636,2187.104248 1810.180542,2196.436523 
	C1810.220093,2291.430908 1810.333252,2386.425049 1810.308838,2481.419434 
	C1810.291870,2547.413574 1810.093262,2613.407471 1809.972900,2679.401611 
	C1809.954468,2689.493164 1811.339600,2690.779297 1821.034790,2688.506104 
	C1832.365845,2685.849121 1843.629883,2682.902588 1854.903931,2680.007568 
	C1870.371338,2676.036133 1885.844238,2672.082764 1901.268188,2667.947510 
	C1909.495361,2665.741943 1911.048584,2663.883545 1911.609009,2656.657227 
	C1911.788818,2654.337158 1911.669556,2651.993164 1911.669678,2649.660156 
	C1911.671997,2605.329102 1911.671509,2560.997803 1911.671631,2516.666748 
	C1911.671631,2513.090088 1911.671753,2509.513428 1911.671753,2505.490479 
	C1914.578003,2505.338623 1916.501587,2505.167969 1918.426636,2505.148193 
	C1936.751831,2504.959961 1955.077271,2504.680908 1973.402954,2504.646484 
	C2056.728027,2504.490234 2140.053223,2504.395996 2223.378418,2504.310791 
	C2231.040771,2504.302979 2238.704590,2504.458496 2246.365234,2504.639404 
	C2253.996582,2504.819824 2260.658691,2502.469971 2266.792969,2497.903076 
	C2278.014648,2489.548340 2289.432373,2481.456787 2300.776611,2473.266113 
	C2328.595459,2453.180664 2356.430664,2433.116943 2384.227295,2413.000244 
	C2387.909424,2410.335693 2392.325439,2408.097412 2392.227539,2401.354004 
	C2232.340332,2401.354004 2072.578613,2401.354004 1912.619141,2401.354004 
	C1912.619141,2351.768799 1912.619141,2303.289062 1912.619141,2254.035400 
	C1920.433594,2254.035400 1927.704956,2253.902588 1934.970215,2254.059326 
	C1961.278442,2254.626221 1957.776611,2248.979248 1975.794922,2274.615234 
	C2021.949829,2340.283203 2130.264404,2339.231689 2173.259033,2266.710205 
	C2177.700195,2259.219238 2183.466064,2256.126465 2192.017578,2256.230957 
	C2219.661865,2256.568848 2247.310547,2256.643311 2274.957275,2256.600342 
	C2319.949951,2256.530029 2364.942383,2256.268555 2409.935059,2256.121338 
	C2444.931885,2256.006836 2479.928711,2255.858154 2514.925293,2255.920654 
	C2523.055420,2255.935059 2529.809082,2254.015137 2535.114014,2247.287842 
	C2555.540527,2221.385254 2576.219971,2195.682129 2596.694580,2169.817139 
	C2598.832031,2167.116699 2600.235840,2163.834961 2601.944336,2160.884766 
	C2542.933105,2160.884766 2484.966797,2160.884766 2425.000244,2160.884521 
M1347.000244,2184.110352 
	C1331.008179,2183.984375 1315.014771,2183.945068 1299.024536,2183.698730 
	C1290.209717,2183.563232 1289.548950,2182.923828 1287.061157,2174.787109 
	C1286.575562,2173.198730 1286.260742,2171.558838 1285.810425,2169.958984 
	C1274.894043,2131.176758 1251.182129,2102.971680 1215.143799,2085.231934 
	C1197.474487,2076.534180 1178.554321,2072.040527 1158.964111,2074.762695 
	C1112.668091,2081.196533 1078.752319,2104.991455 1059.652222,2148.425537 
	C1059.116089,2149.644531 1058.499512,2150.827881 1057.956055,2152.043945 
	C1055.349609,2157.875732 1051.023682,2160.596436 1044.495239,2160.139893 
	C1037.520508,2159.652588 1030.516479,2159.384766 1023.524658,2159.370361 
	C927.556030,2159.172607 831.587219,2159.056885 735.618530,2158.869385 
	C706.965942,2158.813232 678.313599,2158.523193 649.661133,2158.533691 
	C645.301147,2158.535400 640.941467,2159.593262 634.836975,2160.390381 
	C638.506714,2165.908203 640.803223,2169.898438 643.608765,2173.490723 
	C659.396484,2193.706787 675.814331,2213.453125 691.009338,2234.101562 
	C702.511597,2249.731689 716.994019,2256.553223 736.251343,2256.399902 
	C840.204651,2255.572510 944.161438,2255.193359 1048.117065,2254.643555 
	C1055.681519,2254.603516 1061.254395,2257.207520 1065.353882,2264.188232 
	C1069.702271,2271.592529 1074.775879,2278.797852 1080.643188,2285.047363 
	C1124.888306,2332.176270 1219.431885,2342.464111 1270.033569,2268.299072 
	C1273.186157,2263.678467 1276.030640,2258.848145 1278.540771,2254.872070 
	C1293.921875,2254.872070 1308.402588,2254.872070 1322.877441,2254.872070 
	C1322.877441,2304.479736 1322.877441,2353.330078 1322.877441,2402.209961 
	C1282.490723,2402.209961 1242.624756,2402.241455 1202.758667,2402.200928 
	C1163.103638,2402.160645 1123.448364,2402.097656 1083.793457,2401.952637 
	C1043.809570,2401.806152 1003.825989,2401.424561 963.841919,2401.372314 
	C924.150269,2401.320312 884.449463,2399.984863 843.910339,2402.184570 
	C846.327026,2406.000000 849.464050,2408.444092 852.672974,2410.789551 
	C879.825989,2430.635742 907.012268,2450.436523 934.144043,2470.312012 
	C944.354431,2477.791504 954.320068,2485.610107 964.627075,2492.951904 
	C977.778809,2502.320312 991.994995,2508.004395 1008.647156,2504.500732 
	C1011.526184,2503.895020 1014.625793,2504.301514 1017.623474,2504.301270 
	C1115.264282,2504.295166 1212.905029,2504.296143 1310.545776,2504.296387 
	C1312.545288,2504.296387 1314.549805,2504.210205 1316.543213,2504.321045 
	C1323.932861,2504.732178 1325.353516,2505.912354 1325.344116,2513.258545 
	C1325.309937,2539.910400 1325.084229,2566.562500 1324.905518,2593.214355 
	C1324.780396,2611.869385 1324.435181,2630.524658 1324.538452,2649.177979 
	C1324.593018,2659.012939 1327.465210,2663.063232 1336.044067,2665.581543 
	C1362.525635,2673.354492 1389.057617,2680.959961 1415.628784,2688.421143 
	C1423.604004,2690.660645 1425.921875,2688.608887 1425.612793,2680.207520 
	C1425.405151,2674.564453 1424.413574,2668.937744 1424.393555,2663.301758 
	C1424.092651,2578.328613 1423.738770,2493.355225 1423.721191,2408.381836 
	C1423.706665,2337.738281 1424.133423,2267.094971 1424.318359,2196.451416 
	C1424.345825,2185.944824 1423.865967,2185.539062 1413.939209,2185.346436 
	C1392.293091,2184.926514 1370.646729,2184.526611 1347.000244,2184.110352 
M1054.958862,2058.171387 
	C1105.139404,2048.791504 1140.657349,1998.121094 1140.156250,1954.343506 
	C1139.702271,1914.684814 1121.592651,1883.830322 1089.263184,1862.124268 
	C1057.899902,1841.066895 1024.486694,1840.241455 990.882812,1857.807739 
	C965.323669,1871.168579 949.323486,1892.466919 940.005493,1919.326660 
	C936.168518,1930.386841 936.021545,1930.389282 924.443359,1930.442139 
	C855.845398,1930.755737 787.247437,1931.139648 718.649048,1931.308105 
	C660.021667,1931.451904 601.393677,1931.330322 542.765930,1931.358643 
	C539.445618,1931.360229 536.098694,1931.448853 532.812073,1931.870605 
	C528.728455,1932.394653 527.088379,1935.097778 527.925903,1939.000488 
	C528.406189,1941.238281 529.271606,1943.474609 530.376953,1945.484375 
	C542.241333,1967.057251 554.207031,1988.574585 566.104065,2010.129639 
	C571.836304,2020.515259 580.817017,2025.086060 592.421204,2025.094482 
	C610.394043,2025.107544 628.366821,2025.109131 646.339661,2025.137085 
	C686.972839,2025.200317 727.606018,2025.309082 768.239197,2025.331421 
	C783.893188,2025.339966 799.547974,2025.229492 815.201172,2025.058838 
	C856.491760,2024.608887 897.781738,2024.101562 939.071838,2023.604370 
	C949.556274,2023.478027 958.482788,2027.004883 966.198547,2034.214966 
	C990.971558,2057.364990 1020.553345,2063.584229 1054.958862,2058.171387 
M2225.004150,2067.599121 
	C2232.936768,2066.714844 2240.948242,2066.271240 2248.786865,2064.863037 
	C2271.499512,2060.783203 2290.277832,2048.853760 2307.072021,2033.769775 
	C2314.071045,2027.483276 2321.421387,2025.398682 2330.624756,2025.434204 
	C2435.952393,2025.841919 2541.281494,2025.893066 2646.609375,2026.187866 
	C2656.626465,2026.215942 2663.770996,2022.341797 2668.779053,2013.724731 
	C2682.666260,1989.830078 2696.787354,1966.071045 2710.614258,1942.141724 
	C2712.510986,1938.859253 2713.260742,1934.914185 2714.947998,1930.122070 
	C2585.618652,1930.122070 2457.747803,1930.122070 2329.727051,1930.122070 
	C2329.117676,1928.230713 2328.622559,1927.029419 2328.343506,1925.780151 
	C2316.356689,1872.110718 2262.042236,1836.579224 2208.043457,1846.936768 
	C2167.551270,1854.703491 2140.153809,1879.161743 2121.996582,1914.879639 
	C2111.515137,1935.498169 2109.545654,1957.403809 2115.172852,1979.998047 
	C2125.801270,2022.673340 2160.848389,2065.485352 2225.004150,2067.599121 
M1858.999878,2096.036133 
	C1875.869019,2096.036133 1892.738037,2096.036133 1909.825073,2096.036133 
	C1909.825073,2012.677368 1909.825073,1930.618408 1909.825073,1848.534180 
	C1876.548218,1848.534180 1843.789062,1848.534180 1810.745117,1848.534180 
	C1810.745117,1931.008179 1810.745117,2012.700439 1810.745117,2095.575439 
	C1826.533936,2095.735107 1841.766846,2095.889160 1858.999878,2096.036133 
M1424.051758,1981.000000 
	C1423.979492,1940.350342 1423.934570,1899.700684 1423.817505,1859.051147 
	C1423.785156,1847.851074 1422.920532,1846.874878 1411.966064,1846.929077 
	C1388.315186,1847.046265 1364.664551,1847.319336 1341.016113,1847.678711 
	C1336.119873,1847.753052 1331.233398,1848.478882 1326.125977,1848.923218 
	C1326.125977,1931.039673 1326.125977,2012.218262 1326.125977,2094.073486 
	C1333.080200,2094.690674 1339.642212,2095.680176 1346.217773,2095.780518 
	C1366.538940,2096.091064 1386.865112,2096.067627 1407.189331,2096.160889 
	C1410.518921,2096.176025 1413.848999,2096.152100 1417.178223,2096.099121 
	C1421.200806,2096.035156 1423.273193,2093.751953 1423.677979,2089.949463 
	C1423.923828,2087.639648 1423.826782,2085.290527 1423.832275,2082.958984 
	C1423.910645,2049.639404 1423.980103,2016.319702 1424.051758,1981.000000 
M1392.993286,1246.519043 
	C1370.342407,1246.519653 1347.678345,1246.993164 1325.045044,1246.363281 
	C1308.511108,1245.903076 1298.680664,1256.124878 1299.833008,1271.193115 
	C1300.618164,1281.459229 1299.873901,1291.835327 1300.009399,1302.159668 
	C1300.190552,1315.972778 1307.908936,1323.878540 1321.699097,1323.938965 
	C1354.342407,1324.082153 1386.987061,1324.063232 1419.630615,1323.946899 
	C1433.498779,1323.897461 1441.501343,1316.130737 1441.791870,1302.509888 
	C1442.033447,1291.189575 1442.015259,1279.856934 1441.802856,1268.535522 
	C1441.545410,1254.810669 1433.779663,1247.008789 1419.969604,1246.572266 
	C1411.650269,1246.309326 1403.315918,1246.520874 1392.993286,1246.519043 
M1436.597900,1485.054810 
	C1437.930664,1480.352295 1440.164551,1475.697144 1440.414185,1470.937866 
	C1440.989380,1459.973267 1440.769531,1448.955078 1440.560913,1437.964355 
	C1440.278076,1423.067505 1433.119629,1415.716309 1418.447510,1415.642090 
	C1386.130859,1415.478516 1353.812012,1415.468262 1321.495605,1415.651001 
	C1307.530518,1415.729980 1300.085815,1423.420898 1299.861084,1437.463745 
	C1299.685181,1448.455566 1299.721191,1459.453369 1299.846313,1470.446655 
	C1300.017212,1485.455688 1307.566772,1493.208496 1322.701416,1493.296997 
	C1354.351562,1493.482178 1386.003418,1493.345947 1417.654663,1493.362671 
	C1424.591431,1493.366333 1430.841187,1491.699585 1436.597900,1485.054810 
M1441.157349,1137.270752 
	C1441.246704,1125.297241 1441.607788,1113.317871 1441.353027,1101.351685 
	C1441.066895,1087.915161 1433.583984,1080.442383 1419.969482,1080.351318 
	C1387.031006,1080.130737 1354.088745,1080.105591 1321.151001,1080.372681 
	C1307.782837,1080.480957 1300.538330,1088.336426 1300.346313,1101.874756 
	C1300.200073,1112.187134 1300.194214,1122.505249 1300.349365,1132.817383 
	C1300.554199,1146.423218 1307.850586,1153.888550 1321.340088,1153.941895 
	C1354.279541,1154.072144 1387.219849,1154.045410 1420.159546,1153.952393 
	C1431.550781,1153.920288 1436.491333,1150.119507 1441.157349,1137.270752 
M1815.001953,969.303406 
	C1805.351685,969.339661 1795.688721,969.074707 1786.054443,969.486206 
	C1773.122437,970.038574 1765.077026,978.042053 1764.646851,991.050171 
	C1764.229004,1003.682678 1764.265015,1016.347961 1764.627197,1028.983765 
	C1765.025146,1042.872437 1773.405884,1051.313110 1787.397095,1051.470825 
	C1814.683105,1051.778320 1841.976929,1051.768555 1869.263428,1051.483887 
	C1883.702393,1051.333374 1891.841919,1042.628662 1891.990234,1028.129639 
	C1892.102539,1017.148499 1892.031616,1006.165222 1892.010742,995.182983 
	C1891.975586,976.620789 1884.803101,969.446838 1865.922363,969.326843 
	C1849.615845,969.223145 1833.308350,969.303772 1815.001953,969.303406 
M1771.551880,1433.501831 
	C1776.563232,1437.986328 1782.577759,1439.387573 1789.116455,1439.345947 
	C1798.111450,1439.288696 1807.107056,1439.333862 1816.102417,1439.332642 
	C1833.760010,1439.330444 1851.422241,1439.578735 1869.073608,1439.245361 
	C1883.805298,1438.967285 1891.846558,1430.588623 1891.990601,1416.072021 
	C1892.109497,1404.079468 1892.119507,1392.083496 1891.989746,1380.091064 
	C1891.830078,1365.331787 1883.931763,1357.426025 1868.962036,1357.346680 
	C1841.976685,1357.203735 1814.989624,1357.202759 1788.004272,1357.342163 
	C1772.703003,1357.421143 1764.819092,1365.431641 1764.574219,1380.929443 
	C1764.395264,1392.254028 1764.605103,1403.584473 1764.511230,1414.911133 
	C1764.456787,1421.486694 1765.996216,1427.432983 1771.551880,1433.501831 
M1765.826904,1212.817139 
	C1765.828979,1216.145142 1765.733887,1219.476685 1765.850342,1222.800659 
	C1766.299438,1235.626465 1774.310303,1243.998901 1787.296631,1244.125122 
	C1815.249146,1244.396484 1843.207642,1244.369995 1871.160889,1244.135498 
	C1883.770264,1244.029663 1892.312744,1236.354492 1892.867432,1224.060059 
	C1893.496704,1210.115723 1893.473633,1196.092285 1892.767212,1182.152466 
	C1892.163574,1170.238892 1883.821533,1162.341919 1871.904907,1162.201172 
	C1843.620605,1161.866943 1815.327026,1161.865356 1787.042847,1162.203003 
	C1774.313965,1162.354858 1766.154175,1171.152344 1765.873535,1183.911499 
	C1765.676025,1192.892944 1765.829956,1201.881958 1765.826904,1212.817139 
M940.751221,1421.740723 
	C915.552917,1421.740723 890.354675,1421.740723 865.649963,1421.740723 
	C864.927917,1423.487793 864.472229,1424.077271 864.470886,1424.667725 
	C864.412964,1449.647705 864.278503,1474.628662 864.435791,1499.607666 
	C864.491638,1508.485229 866.016785,1509.903320 875.202576,1509.953857 
	C896.851379,1510.072998 918.501831,1509.950806 940.151306,1509.841675 
	C951.183899,1509.786011 952.163635,1508.776367 952.238159,1497.911133 
	C952.386658,1476.262939 952.532104,1454.614380 952.557129,1432.966064 
	C952.561218,1429.444214 951.941284,1425.921631 951.588928,1422.178101 
	C947.929382,1421.998169 945.310547,1421.869385 940.751221,1421.740723 
M778.777710,1419.361450 
	C759.133362,1419.488037 739.488708,1419.574097 719.844910,1419.757935 
	C709.552612,1419.854126 708.535889,1420.852173 708.481445,1431.342651 
	C708.362183,1454.319580 708.295959,1477.297363 708.398376,1500.273926 
	C708.415161,1504.044800 709.401306,1507.811279 709.907776,1511.358398 
	C737.957947,1511.358398 764.814392,1511.358398 792.115417,1511.358398 
	C792.297302,1508.299561 792.581116,1505.712280 792.584778,1503.124512 
	C792.618958,1479.147583 792.634033,1455.170776 792.591797,1431.193848 
	C792.572021,1419.965576 792.368164,1419.824707 778.777710,1419.361450 
M793.563904,1247.001953 
	C793.563904,1234.584229 793.563904,1222.166504 793.563904,1208.251831 
	C782.991028,1215.653198 774.169250,1222.057983 765.115112,1228.115601 
	C749.636963,1238.471313 734.097046,1248.740112 718.413818,1258.781250 
	C711.039856,1263.502441 707.314148,1269.515259 707.515625,1278.554321 
	C707.782166,1290.512817 707.032532,1302.491699 706.841431,1314.463623 
	C706.706238,1322.929077 707.903442,1324.171631 716.337585,1324.966553 
	C717.990601,1325.122559 719.660828,1325.165771 721.322266,1325.153687 
	C741.287842,1325.008789 761.254700,1324.943481 781.218140,1324.645508 
	C792.798950,1324.472778 793.095154,1324.050537 793.178040,1312.900146 
	C793.336365,1291.600586 793.438416,1270.300781 793.563904,1247.001953 
M905.000854,1324.302979 
	C920.867737,1324.302979 936.734558,1324.302979 953.338928,1324.302979 
	C953.338928,1310.445312 953.288391,1297.569946 953.359375,1284.695312 
	C953.397339,1277.811768 950.400574,1272.756348 944.986145,1268.632446 
	C922.518860,1251.519531 900.209167,1234.199219 877.700317,1217.141724 
	C874.758240,1214.912109 870.996948,1213.763672 865.938171,1211.296875 
	C865.938171,1219.837646 865.924377,1226.388916 865.940613,1232.940308 
	C866.006531,1259.530884 866.063843,1286.121582 866.161926,1312.712036 
	C866.203430,1323.962280 866.429016,1324.182861 878.095215,1324.287354 
	C886.396851,1324.361694 894.699707,1324.302612 905.000854,1324.302979 
M2285.231934,949.863586 
	C2283.621582,948.565369 2282.026611,946.160461 2280.398438,946.137817 
	C2261.126709,945.870056 2241.850098,946.004822 2222.575195,945.922119 
	C2217.316162,945.899597 2214.844482,948.204163 2214.058105,953.479919 
	C2210.857910,974.945679 2210.253418,996.286438 2215.463135,1017.293030 
	C2233.128662,1023.200378 2250.872314,1020.776306 2268.378662,1020.757141 
	C2281.494385,1020.742737 2287.820312,1014.708862 2287.830078,1002.204346 
	C2287.843262,985.320496 2289.929199,968.278503 2285.231934,949.863586 
M2268.528809,1107.693604 
	C2252.624756,1108.323975 2236.694336,1108.587158 2220.827881,1109.737427 
	C2212.749756,1110.322876 2212.156250,1111.511230 2212.049316,1119.868164 
	C2211.827393,1137.173340 2211.768555,1154.482910 2211.891602,1171.788940 
	C2211.945312,1179.344727 2213.085449,1180.519897 2220.164551,1181.707764 
	C2239.632080,1184.973877 2259.112549,1184.701294 2278.652588,1182.094360 
	C2283.522949,1181.444458 2285.263916,1179.290161 2286.208252,1174.657715 
	C2289.642090,1157.812378 2289.183105,1140.650391 2287.296387,1124.014893 
	C2285.653076,1109.523804 2289.247070,1110.249023 2268.528809,1107.693604 
M2340.557861,1490.536621 
	C2341.581543,1496.719482 2342.796875,1502.878418 2343.570801,1509.092407 
	C2344.240967,1514.472900 2347.285889,1516.514893 2352.328857,1516.511475 
	C2368.315674,1516.500732 2384.304443,1516.663940 2400.288330,1516.451416 
	C2407.515137,1516.355347 2409.463623,1514.621704 2409.579834,1507.639648 
	C2409.895508,1488.660645 2409.915039,1469.673340 2409.765869,1450.691772 
	C2409.714844,1444.163330 2408.098633,1442.459106 2401.386719,1442.131714 
	C2387.439453,1441.451538 2373.459229,1440.783936 2359.508301,1441.023926 
	C2345.860352,1441.258911 2342.247559,1445.151611 2340.735107,1458.677856 
	C2340.477295,1460.984253 2340.570557,1463.333740 2340.565186,1465.663574 
	C2340.547119,1473.323975 2340.558105,1480.984375 2340.557861,1490.536621 
M2214.571533,1340.719238 
	C2214.683838,1343.380615 2214.779053,1346.042847 2214.910889,1348.703247 
	C2215.510742,1360.796997 2216.035400,1361.328857 2228.528809,1361.362549 
	C2240.189941,1361.394043 2251.854004,1361.435059 2263.512207,1361.227295 
	C2269.777100,1361.115723 2276.032715,1360.489380 2282.679932,1360.071045 
	C2283.874756,1335.793579 2284.240234,1312.307373 2282.464111,1288.427124 
	C2259.861328,1288.427124 2237.979492,1288.427124 2214.963135,1288.427124 
	C2214.829102,1305.634644 2214.700195,1322.210571 2214.571533,1340.719238 
M2346.000000,1360.887451 
	C2367.430176,1361.882324 2388.879883,1363.471558 2410.037109,1359.558472 
	C2410.037109,1335.964478 2410.037109,1313.156982 2410.037109,1290.504517 
	C2388.846436,1285.211060 2362.324463,1285.477905 2342.048828,1291.233154 
	C2342.048828,1313.251709 2342.021240,1335.477905 2342.139404,1357.703491 
	C2342.144531,1358.698364 2343.472900,1359.686035 2346.000000,1360.887451 
M2216.113281,1512.826172 
	C2219.025635,1513.982910 2221.925049,1516.098022 2224.852539,1516.137573 
	C2241.136719,1516.357910 2257.429688,1516.178589 2273.716064,1515.917480 
	C2281.229004,1515.797241 2283.547607,1513.735474 2283.598145,1506.580322 
	C2283.724854,1488.632080 2283.514893,1470.680908 2283.367920,1452.731445 
	C2283.327881,1447.858765 2281.353760,1445.125732 2275.962402,1443.948120 
	C2260.484619,1440.567139 2244.886719,1441.840576 2229.381592,1442.266235 
	C2217.775635,1442.584961 2214.035889,1446.706543 2214.021240,1458.417969 
	C2213.999512,1475.986938 2215.028564,1493.557251 2216.113281,1512.826172 
M2534.848145,1514.290649 
	C2535.895264,1511.959351 2537.790771,1509.650635 2537.853516,1507.292969 
	C2538.303223,1490.378784 2538.869873,1473.441162 2538.403320,1456.538452 
	C2538.093018,1445.293823 2536.828125,1444.661499 2526.160156,1441.798584 
	C2524.563965,1441.370239 2522.897461,1440.973267 2521.260742,1440.961060 
	C2510.294189,1440.879150 2499.288818,1440.329834 2488.370117,1441.051880 
	C2476.497070,1441.837036 2470.929443,1446.702026 2470.383301,1460.224487 
	C2469.994873,1469.847046 2470.468750,1479.501587 2470.250732,1489.134888 
	C2470.090820,1496.185425 2471.216309,1502.826172 2473.278564,1509.626099 
	C2474.618896,1514.046753 2476.372070,1515.847778 2480.564209,1515.801392 
	C2498.151611,1515.607178 2515.738770,1515.379028 2534.848145,1514.290649 
M2503.003906,1361.825317 
	C2511.634766,1361.681885 2520.275635,1361.751953 2528.893311,1361.336182 
	C2537.956787,1360.898926 2539.286133,1359.747192 2539.522949,1350.716919 
	C2539.940918,1334.786255 2539.889648,1318.842163 2539.921875,1302.903442 
	C2539.926758,1300.605347 2539.238770,1298.312988 2538.986572,1296.005493 
	C2538.439941,1291.005615 2535.987549,1288.539673 2530.696533,1287.977173 
	C2511.861084,1285.974976 2493.122803,1286.382080 2474.221436,1288.652588 
	C2470.633789,1313.079346 2470.529297,1336.930298 2474.550781,1361.825317 
	C2483.830811,1361.825317 2492.424561,1361.825317 2503.003906,1361.825317 
M1790.552368,849.802856 
	C1821.476196,850.592041 1852.399292,851.415161 1883.324341,852.152710 
	C1894.712524,852.424316 1895.647949,851.406006 1895.717407,839.726196 
	C1895.830078,820.762878 1895.942993,801.799561 1896.009521,782.836060 
	C1896.016846,780.754700 1895.721191,778.672302 1895.546021,776.320618 
	C1876.596802,789.065735 1858.603760,801.529907 1840.238037,813.418152 
	C1821.999268,825.224243 1803.385254,836.450928 1784.935913,847.931702 
	C1785.094360,848.479065 1785.252808,849.026428 1785.411255,849.573792 
	C1786.589478,849.646301 1787.767822,849.718811 1790.552368,849.802856 
z"/>
<path fill="#FEFEFE" opacity="1.000000" stroke="none" 
	d="
M916.029480,1112.086426 
	C912.977295,1110.125854 909.805176,1108.327881 906.891663,1106.179321 
	C880.091187,1086.414673 853.335388,1066.589600 826.062683,1046.409180 
	C823.855835,1047.953369 821.729370,1049.365112 819.682739,1050.884521 
	C760.297485,1094.968384 701.020386,1139.198853 641.460938,1183.046021 
	C628.881042,1192.307129 615.432983,1200.434448 602.073364,1208.572876 
	C594.738953,1213.040649 591.612610,1218.726562 591.604004,1227.374390 
	C591.541931,1289.694092 591.055298,1352.013062 590.903259,1414.332886 
	C590.834961,1442.322754 591.231323,1470.313599 591.400146,1498.304077 
	C591.416260,1500.968384 591.529358,1503.658569 591.222046,1506.292969 
	C590.469360,1512.744141 588.924011,1514.448975 582.407410,1514.775879 
	C573.427795,1515.226562 564.423523,1515.291870 555.429138,1515.321655 
	C534.097229,1515.391968 512.764893,1515.344360 491.432770,1515.343506 
	C489.766205,1515.343384 488.091492,1515.440552 486.434479,1515.312378 
	C478.607025,1514.706909 476.399170,1512.308594 476.708649,1504.611816 
	C477.230530,1491.631592 477.784821,1478.652222 478.401123,1465.676147 
	C480.282013,1426.075073 483.764801,1386.649048 489.451416,1347.375122 
	C495.048553,1308.719116 504.808105,1271.073608 515.115540,1233.537476 
	C548.672058,1111.335938 606.076477,1000.937439 680.292847,898.699280 
	C730.382141,829.697754 785.607056,765.432922 848.912903,708.155457 
	C902.492432,659.678040 961.357117,618.445923 1022.393372,580.166748 
	C1144.113647,503.829346 1275.910278,452.794159 1416.617554,424.600464 
	C1464.031860,415.100006 1512.013916,410.021271 1560.351807,407.639587 
	C1613.377563,405.026886 1666.305786,405.713989 1719.138672,410.382538 
	C1809.463745,418.363983 1897.390503,437.757996 1982.529053,468.929199 
	C2131.949219,523.635437 2267.316406,602.422241 2387.244629,707.298950 
	C2523.089844,826.095032 2624.697754,969.389343 2692.670898,1136.385986 
	C2719.970215,1203.454956 2739.314209,1273.039307 2751.286865,1344.478394 
	C2755.406250,1369.059326 2757.396973,1394.041992 2759.414307,1418.917847 
	C2761.622070,1446.137817 2762.855713,1473.440186 2764.273926,1500.719116 
	C2764.969238,1514.088135 2764.677979,1514.161133 2751.407715,1514.204468 
	C2723.078125,1514.296997 2694.748535,1514.375610 2666.418945,1514.458984 
	C2664.752441,1514.463867 2663.085449,1514.476196 2661.419189,1514.456787 
	C2650.407471,1514.328613 2649.971924,1513.914917 2650.063721,1503.299683 
	C2650.118652,1496.967896 2650.309326,1490.636841 2650.316406,1484.305176 
	C2650.420166,1389.979370 2650.509521,1295.653442 2650.584961,1201.327637 
	C2650.598877,1184.167114 2650.210693,1183.745605 2633.331787,1183.757324 
	C2561.337891,1183.807129 2489.343750,1183.910889 2417.349854,1183.942139 
	C2412.425781,1183.944336 2407.501709,1183.511963 2401.526855,1183.232544 
	C2401.526855,1178.593994 2401.527100,1174.695557 2401.527100,1170.796997 
	C2401.527100,1064.802856 2401.528809,958.808777 2401.525391,852.814697 
	C2401.524902,836.912109 2401.513672,836.837769 2385.398682,836.907654 
	C2297.081543,837.290405 2208.764160,837.697510 2120.447266,838.164307 
	C2115.841553,838.188660 2111.239258,838.835327 2105.939941,839.246155 
	C2105.939941,1063.496582 2105.939941,1287.033813 2105.939941,1511.767944 
	C2100.566650,1512.386230 2095.783691,1513.381592 2090.994629,1513.412720 
	C2066.330322,1513.573730 2041.664307,1513.523804 2016.999146,1513.473267 
	C2003.545288,1513.445679 2002.334595,1512.199829 2002.339844,1498.488770 
	C2002.413696,1306.835938 2002.462036,1115.183105 2002.611206,923.530273 
	C2002.675781,840.542786 2003.067261,757.555420 2003.080566,674.567993 
	C2003.085205,645.250000 2002.424683,615.931580 2002.010620,586.614197 
	C2001.973999,584.024170 2001.512207,581.440186 2001.267944,579.049866 
	C1995.500977,575.979187 1991.901001,579.400146 1988.158447,581.985718 
	C1965.960571,597.321350 1943.741943,612.627625 1921.609497,628.057312 
	C1840.185669,684.822205 1758.792480,741.630981 1677.391113,798.427979 
	C1675.751831,799.571838 1674.225098,800.893494 1672.519653,801.923157 
	C1665.823242,805.965698 1663.449585,811.829102 1663.671631,819.590332 
	C1664.309937,841.905029 1664.626709,864.231445 1664.830322,886.555420 
	C1665.131470,919.544189 1665.396118,952.534912 1665.370483,985.524658 
	C1665.327637,1040.512939 1664.976440,1095.500732 1664.874268,1150.489014 
	C1664.693604,1247.812012 1664.412231,1345.135620 1664.548828,1442.458374 
	C1664.624146,1496.104370 1665.490723,1549.749146 1665.927856,1603.395020 
	C1665.984863,1610.387817 1665.491943,1617.383667 1665.459106,1624.378906 
	C1665.421997,1632.288696 1666.614014,1633.644287 1674.759644,1633.779907 
	C1685.085449,1633.951904 1695.418579,1633.621948 1705.748657,1633.603760 
	C1764.409302,1633.500610 1823.069824,1633.373901 1881.730469,1633.350708 
	C2116.716064,1633.257690 2351.701416,1633.227173 2586.687012,1633.107910 
	C2641.010498,1633.080322 2695.333740,1632.775269 2749.657227,1632.658691 
	C2754.271240,1632.648804 2758.885986,1633.099976 2764.472656,1633.386963 
	C2764.472656,1637.672363 2764.575684,1641.268188 2764.456543,1644.856567 
	C2763.572021,1671.495850 2762.723633,1698.136963 2761.688232,1724.770508 
	C2761.299316,1734.777588 2759.748047,1736.118896 2749.662598,1736.186523 
	C2728.666260,1736.327271 2707.669189,1736.414551 2686.672607,1736.451660 
	C2595.017090,1736.613525 2503.361328,1736.753052 2411.705811,1736.894287 
	C2281.052979,1737.095581 2150.400146,1737.362671 2019.747192,1737.467896 
	C1906.092407,1737.559448 1792.437256,1737.465454 1678.782349,1737.452026 
	C1678.449341,1737.451904 1678.116211,1737.415771 1677.783203,1737.416138 
	C1666.404297,1737.427734 1665.662720,1738.018921 1665.690918,1749.044189 
	C1665.894897,1828.700317 1666.153564,1908.356567 1666.397461,1988.012695 
	C1666.410767,1992.345337 1666.469971,1996.678101 1666.470093,2001.010742 
	C1666.473633,2248.663574 1666.463257,2496.316650 1666.522583,2743.969482 
	C1666.524292,2751.255371 1667.106201,2758.552979 1667.686768,2765.823730 
	C1668.348267,2774.106201 1664.942749,2780.162354 1657.779297,2783.871826 
	C1645.965698,2789.989258 1633.992188,2795.800049 1622.044922,2801.656006 
	C1617.317139,2803.973145 1612.530518,2804.122803 1607.603760,2801.873047 
	C1595.198242,2796.207520 1582.747314,2790.639160 1570.262451,2785.150391 
	C1564.335815,2782.544922 1561.937012,2778.175781 1561.993774,2771.753906 
	C1562.438110,2721.437256 1562.822266,2671.119141 1563.053467,2620.801025 
	C1563.148315,2600.144775 1562.812622,2579.486084 1562.689087,2558.828613 
	C1562.635254,2549.830322 1562.598877,2540.832031 1562.594604,2531.833740 
	C1562.470825,2271.851074 1562.352661,2011.868286 1562.231812,1751.885498 
	C1562.223389,1733.598145 1562.219360,1733.774780 1543.877075,1733.921143 
	C1507.217163,1734.213745 1470.555786,1734.357422 1433.894775,1734.449219 
	C1205.260132,1735.021729 976.625549,1735.633789 747.990723,1736.073242 
	C674.997803,1736.213501 602.003967,1735.874023 529.010559,1735.738892 
	C516.014465,1735.714844 503.018311,1735.639404 490.022522,1735.543579 
	C481.805481,1735.483032 480.156860,1734.094727 479.602966,1725.791504 
	C477.785095,1698.539185 476.026123,1671.282104 474.439819,1644.015503 
	C473.907013,1634.857300 475.119934,1633.839355 484.574982,1633.395386 
	C486.570923,1633.301636 488.573792,1633.345459 490.573486,1633.343018 
	C550.568542,1633.270142 610.563660,1633.213013 670.558716,1633.125610 
	C778.546021,1632.968140 886.533203,1632.747803 994.520569,1632.635376 
	C1143.174438,1632.480713 1291.828247,1632.396118 1440.482056,1632.294922 
	C1476.138672,1632.270630 1511.795532,1632.395752 1547.451538,1632.247437 
	C1558.859253,1632.200073 1559.596313,1631.261597 1559.495361,1619.331665 
	C1559.284058,1594.344971 1558.822021,1569.360596 1558.612427,1544.373779 
	C1558.394287,1518.378784 1558.258423,1492.382324 1558.248901,1466.386475 
	C1558.209839,1359.725708 1558.284546,1253.065063 1558.217163,1146.404297 
	C1558.156372,1050.079224 1557.869263,953.754150 1557.980713,857.429443 
	C1557.991821,847.902161 1554.961914,841.010376 1547.714966,834.939026 
	C1528.557617,818.889709 1510.020874,802.096252 1490.769775,786.163696 
	C1479.878052,777.149536 1475.141235,766.544678 1475.463623,752.289551 
	C1476.284302,715.979797 1476.116821,679.647583 1476.302124,643.324097 
	C1476.315430,640.700684 1475.984741,638.075623 1475.756958,634.574280 
	C1458.686523,630.519165 1441.263672,636.317932 1423.664185,632.339722 
	C1423.664185,628.857544 1423.664307,625.582336 1423.664185,622.307068 
	C1423.663940,597.310303 1423.734619,572.313293 1423.630371,547.316956 
	C1423.585083,536.453857 1422.334229,535.394958 1411.409180,535.622498 
	C1391.755615,536.031921 1372.102661,536.465698 1352.449707,536.903320 
	C1350.452759,536.947754 1348.442993,536.966309 1346.464600,537.206482 
	C1339.564941,538.044373 1338.428101,539.036072 1337.988403,545.807251 
	C1337.643555,551.120300 1337.780029,556.467285 1337.774902,561.799255 
	C1337.755493,582.131470 1337.841064,602.464050 1337.731323,622.795654 
	C1337.679565,632.381897 1336.455444,634.002319 1327.054565,634.721436 
	C1320.147583,635.249878 1312.982056,635.499207 1306.229858,634.255066 
	C1294.791382,632.147461 1285.455688,635.151672 1276.500244,642.148865 
	C1236.068237,673.739136 1195.340088,704.950623 1154.937744,736.578369 
	C1107.186401,773.959106 1059.655273,811.621643 1012.042542,849.179443 
	C1006.819702,853.299316 1001.183655,857.124390 998.812988,865.091919 
	C984.225708,877.971130 970.503967,890.034180 956.876709,902.203064 
	C944.729370,913.050476 932.810181,924.157166 920.522827,934.841797 
	C916.811279,938.069153 915.836365,941.623474 915.847107,946.220947 
	C915.976257,1001.509277 915.987488,1056.797852 916.029480,1112.086426 
z"/>
<path fill="#FDFEFE" opacity="1.000000" stroke="none" 
	d="
M2426.000488,2160.884766 
	C2484.966797,2160.884766 2542.933105,2160.884766 2601.944336,2160.884766 
	C2600.235840,2163.834961 2598.832031,2167.116699 2596.694580,2169.817139 
	C2576.219971,2195.682129 2555.540527,2221.385254 2535.114014,2247.287842 
	C2529.809082,2254.015137 2523.055420,2255.935059 2514.925293,2255.920654 
	C2479.928711,2255.858154 2444.931885,2256.006836 2409.935059,2256.121338 
	C2364.942383,2256.268555 2319.949951,2256.530029 2274.957275,2256.600342 
	C2247.310547,2256.643311 2219.661865,2256.568848 2192.017578,2256.230957 
	C2183.466064,2256.126465 2177.700195,2259.219238 2173.259033,2266.710205 
	C2130.264404,2339.231689 2021.949829,2340.283203 1975.794922,2274.615234 
	C1957.776611,2248.979248 1961.278442,2254.626221 1934.970215,2254.059326 
	C1927.704956,2253.902588 1920.433594,2254.035400 1912.619141,2254.035400 
	C1912.619141,2303.289062 1912.619141,2351.768799 1912.619141,2401.354004 
	C2072.578613,2401.354004 2232.340332,2401.354004 2392.227539,2401.354004 
	C2392.325439,2408.097412 2387.909424,2410.335693 2384.227295,2413.000244 
	C2356.430664,2433.116943 2328.595459,2453.180664 2300.776611,2473.266113 
	C2289.432373,2481.456787 2278.014648,2489.548340 2266.792969,2497.903076 
	C2260.658691,2502.469971 2253.996582,2504.819824 2246.365234,2504.639404 
	C2238.704590,2504.458496 2231.040771,2504.302979 2223.378418,2504.310791 
	C2140.053223,2504.395996 2056.728027,2504.490234 1973.402954,2504.646484 
	C1955.077271,2504.680908 1936.751831,2504.959961 1918.426636,2505.148193 
	C1916.501587,2505.167969 1914.578003,2505.338623 1911.671753,2505.490479 
	C1911.671753,2509.513428 1911.671631,2513.090088 1911.671631,2516.666748 
	C1911.671509,2560.997803 1911.671997,2605.329102 1911.669678,2649.660156 
	C1911.669556,2651.993164 1911.788818,2654.337158 1911.609009,2656.657227 
	C1911.048584,2663.883545 1909.495361,2665.741943 1901.268188,2667.947510 
	C1885.844238,2672.082764 1870.371338,2676.036133 1854.903931,2680.007568 
	C1843.629883,2682.902588 1832.365845,2685.849121 1821.034790,2688.506104 
	C1811.339600,2690.779297 1809.954468,2689.493164 1809.972900,2679.401611 
	C1810.093262,2613.407471 1810.291870,2547.413574 1810.308838,2481.419434 
	C1810.333252,2386.425049 1810.220093,2291.430908 1810.180542,2196.436523 
	C1810.176636,2187.104248 1811.117188,2186.060059 1820.410156,2185.994873 
	C1852.070435,2185.773193 1883.735596,2185.904541 1915.389648,2185.361328 
	C1927.307983,2185.156982 1939.201294,2183.478271 1951.704102,2182.421143 
	C1953.387085,2176.070557 1954.905762,2170.371094 1956.407349,2164.667236 
	C1963.191162,2138.899902 1974.856567,2116.038574 1996.664795,2099.707520 
	C2072.531738,2042.894531 2157.552979,2091.225342 2179.994629,2146.630127 
	C2184.646240,2158.114014 2190.792236,2161.937988 2203.035156,2161.768311 
	C2254.355713,2161.057129 2305.691162,2161.427246 2357.020996,2161.321045 
	C2379.680908,2161.274170 2402.340576,2161.035889 2426.000488,2160.884766 
M2122.384277,2190.963623 
	C2118.523438,2173.322021 2107.620850,2161.333740 2091.483643,2154.330322 
	C2072.644531,2146.154785 2054.755615,2149.020264 2039.394775,2162.479980 
	C2024.384399,2175.632812 2020.841309,2192.664062 2026.169189,2211.559326 
	C2033.512329,2237.602539 2058.927490,2252.147217 2086.328125,2246.247314 
	C2111.049072,2240.924316 2126.521729,2218.117676 2122.384277,2190.963623 
z"/>
<path fill="#FDFEFE" opacity="1.000000" stroke="none" 
	d="
M1348.000244,2184.114258 
	C1370.646729,2184.526611 1392.293091,2184.926514 1413.939209,2185.346436 
	C1423.865967,2185.539062 1424.345825,2185.944824 1424.318359,2196.451416 
	C1424.133423,2267.094971 1423.706665,2337.738281 1423.721191,2408.381836 
	C1423.738770,2493.355225 1424.092651,2578.328613 1424.393555,2663.301758 
	C1424.413574,2668.937744 1425.405151,2674.564453 1425.612793,2680.207520 
	C1425.921875,2688.608887 1423.604004,2690.660645 1415.628784,2688.421143 
	C1389.057617,2680.959961 1362.525635,2673.354492 1336.044067,2665.581543 
	C1327.465210,2663.063232 1324.593018,2659.012939 1324.538452,2649.177979 
	C1324.435181,2630.524658 1324.780396,2611.869385 1324.905518,2593.214355 
	C1325.084229,2566.562500 1325.309937,2539.910400 1325.344116,2513.258545 
	C1325.353516,2505.912354 1323.932861,2504.732178 1316.543213,2504.321045 
	C1314.549805,2504.210205 1312.545288,2504.296387 1310.545776,2504.296387 
	C1212.905029,2504.296143 1115.264282,2504.295166 1017.623474,2504.301270 
	C1014.625793,2504.301514 1011.526184,2503.895020 1008.647156,2504.500732 
	C991.994995,2508.004395 977.778809,2502.320312 964.627075,2492.951904 
	C954.320068,2485.610107 944.354431,2477.791504 934.144043,2470.312012 
	C907.012268,2450.436523 879.825989,2430.635742 852.672974,2410.789551 
	C849.464050,2408.444092 846.327026,2406.000000 843.910339,2402.184570 
	C884.449463,2399.984863 924.150269,2401.320312 963.841919,2401.372314 
	C1003.825989,2401.424561 1043.809570,2401.806152 1083.793457,2401.952637 
	C1123.448364,2402.097656 1163.103638,2402.160645 1202.758667,2402.200928 
	C1242.624756,2402.241455 1282.490723,2402.209961 1322.877441,2402.209961 
	C1322.877441,2353.330078 1322.877441,2304.479736 1322.877441,2254.872070 
	C1308.402588,2254.872070 1293.921875,2254.872070 1278.540771,2254.872070 
	C1276.030640,2258.848145 1273.186157,2263.678467 1270.033569,2268.299072 
	C1219.431885,2342.464111 1124.888306,2332.176270 1080.643188,2285.047363 
	C1074.775879,2278.797852 1069.702271,2271.592529 1065.353882,2264.188232 
	C1061.254395,2257.207520 1055.681519,2254.603516 1048.117065,2254.643555 
	C944.161438,2255.193359 840.204651,2255.572510 736.251343,2256.399902 
	C716.994019,2256.553223 702.511597,2249.731689 691.009338,2234.101562 
	C675.814331,2213.453125 659.396484,2193.706787 643.608765,2173.490723 
	C640.803223,2169.898438 638.506714,2165.908203 634.836975,2160.390381 
	C640.941467,2159.593262 645.301147,2158.535400 649.661133,2158.533691 
	C678.313599,2158.523193 706.965942,2158.813232 735.618530,2158.869385 
	C831.587219,2159.056885 927.556030,2159.172607 1023.524658,2159.370361 
	C1030.516479,2159.384766 1037.520508,2159.652588 1044.495239,2160.139893 
	C1051.023682,2160.596436 1055.349609,2157.875732 1057.956055,2152.043945 
	C1058.499512,2150.827881 1059.116089,2149.644531 1059.652222,2148.425537 
	C1078.752319,2104.991455 1112.668091,2081.196533 1158.964111,2074.762695 
	C1178.554321,2072.040527 1197.474487,2076.534180 1215.143799,2085.231934 
	C1251.182129,2102.971680 1274.894043,2131.176758 1285.810425,2169.958984 
	C1286.260742,2171.558838 1286.575562,2173.198730 1287.061157,2174.787109 
	C1289.548950,2182.923828 1290.209717,2183.563232 1299.024536,2183.698730 
	C1315.014771,2183.945068 1331.008179,2183.984375 1348.000244,2184.114258 
M1203.785400,2232.781006 
	C1208.086182,2226.136963 1212.916870,2219.765869 1216.519897,2212.762695 
	C1219.395508,2207.173340 1219.937134,2200.887695 1218.635864,2194.349121 
	C1214.375000,2172.939453 1197.254150,2156.044922 1175.719971,2152.586182 
	C1154.302979,2149.146240 1132.999146,2159.312012 1124.382324,2177.083008 
	C1114.555664,2197.349365 1121.011108,2223.593994 1139.946533,2237.832520 
	C1158.662842,2251.906250 1179.494385,2253.980225 1199.064453,2237.119385 
	C1200.323242,2236.035156 1201.540161,2234.902100 1203.785400,2232.781006 
z"/>
<path fill="#FDFEFE" opacity="1.000000" stroke="none" 
	d="
M1054.104004,2058.315918 
	C1020.553345,2063.584229 990.971558,2057.364990 966.198547,2034.214966 
	C958.482788,2027.004883 949.556274,2023.478027 939.071838,2023.604370 
	C897.781738,2024.101562 856.491760,2024.608887 815.201172,2025.058838 
	C799.547974,2025.229492 783.893188,2025.339966 768.239197,2025.331421 
	C727.606018,2025.309082 686.972839,2025.200317 646.339661,2025.137085 
	C628.366821,2025.109131 610.394043,2025.107544 592.421204,2025.094482 
	C580.817017,2025.086060 571.836304,2020.515259 566.104065,2010.129639 
	C554.207031,1988.574585 542.241333,1967.057251 530.376953,1945.484375 
	C529.271606,1943.474609 528.406189,1941.238281 527.925903,1939.000488 
	C527.088379,1935.097778 528.728455,1932.394653 532.812073,1931.870605 
	C536.098694,1931.448853 539.445618,1931.360229 542.765930,1931.358643 
	C601.393677,1931.330322 660.021667,1931.451904 718.649048,1931.308105 
	C787.247437,1931.139648 855.845398,1930.755737 924.443359,1930.442139 
	C936.021545,1930.389282 936.168518,1930.386841 940.005493,1919.326660 
	C949.323486,1892.466919 965.323669,1871.168579 990.882812,1857.807739 
	C1024.486694,1840.241455 1057.899902,1841.066895 1089.263184,1862.124268 
	C1121.592651,1883.830322 1139.702271,1914.684814 1140.156250,1954.343506 
	C1140.657349,1998.121094 1105.139404,2048.791504 1054.104004,2058.315918 
z"/>
<path fill="#FDFEFE" opacity="1.000000" stroke="none" 
	d="
M2224.093262,2067.596436 
	C2160.848389,2065.485352 2125.801270,2022.673340 2115.172852,1979.998047 
	C2109.545654,1957.403809 2111.515137,1935.498169 2121.996582,1914.879639 
	C2140.153809,1879.161743 2167.551270,1854.703491 2208.043457,1846.936768 
	C2262.042236,1836.579224 2316.356689,1872.110718 2328.343506,1925.780151 
	C2328.622559,1927.029419 2329.117676,1928.230713 2329.727051,1930.122070 
	C2457.747803,1930.122070 2585.618652,1930.122070 2714.947998,1930.122070 
	C2713.260742,1934.914185 2712.510986,1938.859253 2710.614258,1942.141724 
	C2696.787354,1966.071045 2682.666260,1989.830078 2668.779053,2013.724731 
	C2663.770996,2022.341797 2656.626465,2026.215942 2646.609375,2026.187866 
	C2541.281494,2025.893066 2435.952393,2025.841919 2330.624756,2025.434204 
	C2321.421387,2025.398682 2314.071045,2027.483276 2307.072021,2033.769775 
	C2290.277832,2048.853760 2271.499512,2060.783203 2248.786865,2064.863037 
	C2240.948242,2066.271240 2232.936768,2066.714844 2224.093262,2067.596436 
M2263.666992,1939.841309 
	C2263.082764,1938.646240 2262.585449,1937.398926 2261.901611,1936.263916 
	C2251.522705,1919.040894 2236.152344,1908.437988 2216.228027,1908.767822 
	C2182.563232,1909.325195 2162.392090,1937.818115 2169.955322,1968.564697 
	C2177.985107,2001.207886 2218.709473,2017.232910 2246.553223,1998.359497 
	C2263.980713,1986.546997 2273.717285,1962.440063 2263.666992,1939.841309 
z"/>
<path fill="#FEFEFE" opacity="1.000000" stroke="none" 
	d="
M1114.603760,1141.868042 
	C1114.418091,1119.219971 1114.154541,1096.572388 1114.062012,1073.923828 
	C1113.841553,1019.946289 1113.821045,965.967468 1113.419067,911.991394 
	C1113.346558,902.250488 1116.163452,894.489685 1123.857788,888.422729 
	C1175.123901,847.999634 1226.345337,807.519653 1277.606934,767.090698 
	C1280.177490,765.063416 1282.985596,763.337524 1286.016113,761.240662 
	C1288.281494,763.120117 1290.322510,764.731262 1292.273926,766.444519 
	C1325.319702,795.458374 1358.493774,824.328430 1391.327881,853.580017 
	C1405.996460,866.647949 1419.945801,880.521484 1434.287964,893.958435 
	C1438.919800,898.297913 1441.436279,903.420593 1441.417236,909.826538 
	C1441.368774,926.149963 1441.479126,942.474365 1441.329102,958.796570 
	C1441.302734,961.662109 1440.321533,964.518982 1439.626099,968.202454 
	C1428.154175,967.325989 1417.230713,966.843018 1406.396484,965.589600 
	C1384.572754,963.064758 1362.789429,960.182678 1341.011475,957.282532 
	C1337.771362,956.851013 1334.318848,956.098755 1331.536987,954.499268 
	C1323.050537,949.619690 1315.600586,951.686340 1308.328613,956.939087 
	C1296.720825,965.323547 1285.066895,973.644775 1273.494019,982.077026 
	C1251.691528,997.963013 1230.081909,1014.119019 1208.083740,1029.728394 
	C1199.071899,1036.123169 1195.104614,1044.004272 1195.280762,1055.055176 
	C1195.732300,1083.370239 1195.546753,1111.695312 1194.557129,1140.945312 
	C1167.200195,1141.872070 1140.901978,1141.870117 1114.603760,1141.868042 
z"/>
<path fill="#A6CCE8" opacity="1.000000" stroke="none" 
	d="
M1114.410400,1142.793945 
	C1140.901978,1141.870117 1167.200195,1141.872070 1194.388184,1141.858276 
	C1195.414673,1145.493408 1195.670288,1149.144165 1195.671021,1152.795044 
	C1195.692139,1266.656372 1195.688232,1380.517578 1195.688232,1494.378906 
	C1195.688232,1499.971802 1195.688232,1505.564575 1195.688232,1511.426514 
	C1192.817261,1511.911255 1191.261963,1512.393188 1189.703613,1512.403931 
	C1168.066040,1512.551147 1146.428101,1512.708130 1124.790161,1512.702271 
	C1113.127686,1512.699097 1112.242798,1511.803467 1112.334839,1500.230469 
	C1112.795654,1442.317017 1113.489624,1384.405151 1113.795044,1326.490967 
	C1114.116455,1265.568237 1114.091064,1204.643677 1114.410400,1142.793945 
z"/>
<path fill="#FEFEFE" opacity="1.000000" stroke="none" 
	d="
M1857.999756,2096.039551 
	C1841.766846,2095.889160 1826.533936,2095.735107 1810.745117,2095.575439 
	C1810.745117,2012.700439 1810.745117,1931.008179 1810.745117,1848.534180 
	C1843.789062,1848.534180 1876.548218,1848.534180 1909.825073,1848.534180 
	C1909.825073,1930.618408 1909.825073,2012.677368 1909.825073,2096.036133 
	C1892.738037,2096.036133 1875.869019,2096.036133 1857.999756,2096.039551 
z"/>
<path fill="#FEFEFE" opacity="1.000000" stroke="none" 
	d="
M1424.051758,1982.000000 
	C1423.980103,2016.319702 1423.910645,2049.639404 1423.832275,2082.958984 
	C1423.826782,2085.290527 1423.923828,2087.639648 1423.677979,2089.949463 
	C1423.273193,2093.751953 1421.200806,2096.035156 1417.178223,2096.099121 
	C1413.848999,2096.152100 1410.518921,2096.176025 1407.189331,2096.160889 
	C1386.865112,2096.067627 1366.538940,2096.091064 1346.217773,2095.780518 
	C1339.642212,2095.680176 1333.080200,2094.690674 1326.125977,2094.073486 
	C1326.125977,2012.218262 1326.125977,1931.039673 1326.125977,1848.923218 
	C1331.233398,1848.478882 1336.119873,1847.753052 1341.016113,1847.678711 
	C1364.664551,1847.319336 1388.315186,1847.046265 1411.966064,1846.929077 
	C1422.920532,1846.874878 1423.785156,1847.851074 1423.817505,1859.051147 
	C1423.934570,1899.700684 1423.979492,1940.350342 1424.051758,1982.000000 
z"/>
<path fill="#A6CDE9" opacity="1.000000" stroke="none" 
	d="
M916.275146,1112.706543 
	C915.987488,1056.797852 915.976257,1001.509277 915.847107,946.220947 
	C915.836365,941.623474 916.811279,938.069153 920.522827,934.841797 
	C932.810181,924.157166 944.729370,913.050476 956.876709,902.203064 
	C970.503967,890.034180 984.225708,877.971130 998.563660,865.769287 
	C999.488831,871.315247 999.951721,876.952393 999.994934,882.592773 
	C1000.514221,950.537537 1001.054688,1018.482422 1001.387939,1086.428223 
	C1001.474426,1104.073120 1000.707825,1121.720825 1000.648621,1139.368286 
	C1000.625244,1146.340454 1001.627808,1153.309814 1001.869385,1160.290649 
	C1002.218262,1170.371582 998.136902,1172.919312 988.997437,1168.096802 
	C984.614075,1165.783813 980.527893,1162.812378 976.582336,1159.781006 
	C956.512207,1144.360718 936.532288,1128.823242 916.275146,1112.706543 
z"/>
<path fill="#FBFCFC" opacity="1.000000" stroke="none" 
	d="
M1393.990845,1246.519043 
	C1403.315918,1246.520874 1411.650269,1246.309326 1419.969604,1246.572266 
	C1433.779663,1247.008789 1441.545410,1254.810669 1441.802856,1268.535522 
	C1442.015259,1279.856934 1442.033447,1291.189575 1441.791870,1302.509888 
	C1441.501343,1316.130737 1433.498779,1323.897461 1419.630615,1323.946899 
	C1386.987061,1324.063232 1354.342407,1324.082153 1321.699097,1323.938965 
	C1307.908936,1323.878540 1300.190552,1315.972778 1300.009399,1302.159668 
	C1299.873901,1291.835327 1300.618164,1281.459229 1299.833008,1271.193115 
	C1298.680664,1256.124878 1308.511108,1245.903076 1325.045044,1246.363281 
	C1347.678345,1246.993164 1370.342407,1246.519653 1393.990845,1246.519043 
z"/>
<path fill="#FDFCFC" opacity="1.000000" stroke="none" 
	d="
M1436.126465,1485.687134 
	C1430.841187,1491.699585 1424.591431,1493.366333 1417.654663,1493.362671 
	C1386.003418,1493.345947 1354.351562,1493.482178 1322.701416,1493.296997 
	C1307.566772,1493.208496 1300.017212,1485.455688 1299.846313,1470.446655 
	C1299.721191,1459.453369 1299.685181,1448.455566 1299.861084,1437.463745 
	C1300.085815,1423.420898 1307.530518,1415.729980 1321.495605,1415.651001 
	C1353.812012,1415.468262 1386.130859,1415.478516 1418.447510,1415.642090 
	C1433.119629,1415.716309 1440.278076,1423.067505 1440.560913,1437.964355 
	C1440.769531,1448.955078 1440.989380,1459.973267 1440.414185,1470.937866 
	C1440.164551,1475.697144 1437.930664,1480.352295 1436.126465,1485.687134 
z"/>
<path fill="#FBFCFC" opacity="1.000000" stroke="none" 
	d="
M1440.943604,1138.079590 
	C1436.491333,1150.119507 1431.550781,1153.920288 1420.159546,1153.952393 
	C1387.219849,1154.045410 1354.279541,1154.072144 1321.340088,1153.941895 
	C1307.850586,1153.888550 1300.554199,1146.423218 1300.349365,1132.817383 
	C1300.194214,1122.505249 1300.200073,1112.187134 1300.346313,1101.874756 
	C1300.538330,1088.336426 1307.782837,1080.480957 1321.151001,1080.372681 
	C1354.088745,1080.105591 1387.031006,1080.130737 1419.969482,1080.351318 
	C1433.583984,1080.442383 1441.066895,1087.915161 1441.353027,1101.351685 
	C1441.607788,1113.317871 1441.246704,1125.297241 1440.943604,1138.079590 
z"/>
<path fill="#A5CCE8" opacity="1.000000" stroke="none" 
	d="
M1816.001587,969.303162 
	C1833.308350,969.303772 1849.615845,969.223145 1865.922363,969.326843 
	C1884.803101,969.446838 1891.975586,976.620789 1892.010742,995.182983 
	C1892.031616,1006.165222 1892.102539,1017.148499 1891.990234,1028.129639 
	C1891.841919,1042.628662 1883.702393,1051.333374 1869.263428,1051.483887 
	C1841.976929,1051.768555 1814.683105,1051.778320 1787.397095,1051.470825 
	C1773.405884,1051.313110 1765.025146,1042.872437 1764.627197,1028.983765 
	C1764.265015,1016.347961 1764.229004,1003.682678 1764.646851,991.050171 
	C1765.077026,978.042053 1773.122437,970.038574 1786.054443,969.486206 
	C1795.688721,969.074707 1805.351685,969.339661 1816.001587,969.303162 
z"/>
<path fill="#A5CBE7" opacity="1.000000" stroke="none" 
	d="
M1771.011108,1432.963501 
	C1765.996216,1427.432983 1764.456787,1421.486694 1764.511230,1414.911133 
	C1764.605103,1403.584473 1764.395264,1392.254028 1764.574219,1380.929443 
	C1764.819092,1365.431641 1772.703003,1357.421143 1788.004272,1357.342163 
	C1814.989624,1357.202759 1841.976685,1357.203735 1868.962036,1357.346680 
	C1883.931763,1357.426025 1891.830078,1365.331787 1891.989746,1380.091064 
	C1892.119507,1392.083496 1892.109497,1404.079468 1891.990601,1416.072021 
	C1891.846558,1430.588623 1883.805298,1438.967285 1869.073608,1439.245361 
	C1851.422241,1439.578735 1833.760010,1439.330444 1816.102417,1439.332642 
	C1807.107056,1439.333862 1798.111450,1439.288696 1789.116455,1439.345947 
	C1782.577759,1439.387573 1776.563232,1437.986328 1771.011108,1432.963501 
z"/>
<path fill="#A5CDE9" opacity="1.000000" stroke="none" 
	d="
M1765.826904,1211.842407 
	C1765.829956,1201.881958 1765.676025,1192.892944 1765.873535,1183.911499 
	C1766.154175,1171.152344 1774.313965,1162.354858 1787.042847,1162.203003 
	C1815.327026,1161.865356 1843.620605,1161.866943 1871.904907,1162.201172 
	C1883.821533,1162.341919 1892.163574,1170.238892 1892.767212,1182.152466 
	C1893.473633,1196.092285 1893.496704,1210.115723 1892.867432,1224.060059 
	C1892.312744,1236.354492 1883.770264,1244.029663 1871.160889,1244.135498 
	C1843.207642,1244.369995 1815.249146,1244.396484 1787.296631,1244.125122 
	C1774.310303,1243.998901 1766.299438,1235.626465 1765.850342,1222.800659 
	C1765.733887,1219.476685 1765.828979,1216.145142 1765.826904,1211.842407 
z"/>
<path fill="#FDFDFD" opacity="1.000000" stroke="none" 
	d="
M941.721436,1421.740723 
	C945.310547,1421.869385 947.929382,1421.998169 951.588928,1422.178101 
	C951.941284,1425.921631 952.561218,1429.444214 952.557129,1432.966064 
	C952.532104,1454.614380 952.386658,1476.262939 952.238159,1497.911133 
	C952.163635,1508.776367 951.183899,1509.786011 940.151306,1509.841675 
	C918.501831,1509.950806 896.851379,1510.072998 875.202576,1509.953857 
	C866.016785,1509.903320 864.491638,1508.485229 864.435791,1499.607666 
	C864.278503,1474.628662 864.412964,1449.647705 864.470886,1424.667725 
	C864.472229,1424.077271 864.927917,1423.487793 865.649963,1421.740723 
	C890.354675,1421.740723 915.552917,1421.740723 941.721436,1421.740723 
z"/>
<path fill="#FDFDFD" opacity="1.000000" stroke="none" 
	d="
M779.744995,1419.349609 
	C792.368164,1419.824707 792.572021,1419.965576 792.591797,1431.193848 
	C792.634033,1455.170776 792.618958,1479.147583 792.584778,1503.124512 
	C792.581116,1505.712280 792.297302,1508.299561 792.115417,1511.358398 
	C764.814392,1511.358398 737.957947,1511.358398 709.907776,1511.358398 
	C709.401306,1507.811279 708.415161,1504.044800 708.398376,1500.273926 
	C708.295959,1477.297363 708.362183,1454.319580 708.481445,1431.342651 
	C708.535889,1420.852173 709.552612,1419.854126 719.844910,1419.757935 
	C739.488708,1419.574097 759.133362,1419.488037 779.744995,1419.349609 
z"/>
<path fill="#F9FAFA" opacity="1.000000" stroke="none" 
	d="
M793.563843,1248.001465 
	C793.438416,1270.300781 793.336365,1291.600586 793.178040,1312.900146 
	C793.095154,1324.050537 792.798950,1324.472778 781.218140,1324.645508 
	C761.254700,1324.943481 741.287842,1325.008789 721.322266,1325.153687 
	C719.660828,1325.165771 717.990601,1325.122559 716.337585,1324.966553 
	C707.903442,1324.171631 706.706238,1322.929077 706.841431,1314.463623 
	C707.032532,1302.491699 707.782166,1290.512817 707.515625,1278.554321 
	C707.314148,1269.515259 711.039856,1263.502441 718.413818,1258.781250 
	C734.097046,1248.740112 749.636963,1238.471313 765.115112,1228.115601 
	C774.169250,1222.057983 782.991028,1215.653198 793.563904,1208.251831 
	C793.563904,1222.166504 793.563904,1234.584229 793.563843,1248.001465 
z"/>
<path fill="#FBFDFD" opacity="1.000000" stroke="none" 
	d="
M904.001465,1324.302979 
	C894.699707,1324.302612 886.396851,1324.361694 878.095215,1324.287354 
	C866.429016,1324.182861 866.203430,1323.962280 866.161926,1312.712036 
	C866.063843,1286.121582 866.006531,1259.530884 865.940613,1232.940308 
	C865.924377,1226.388916 865.938171,1219.837646 865.938171,1211.296875 
	C870.996948,1213.763672 874.758240,1214.912109 877.700317,1217.141724 
	C900.209167,1234.199219 922.518860,1251.519531 944.986145,1268.632446 
	C950.400574,1272.756348 953.397339,1277.811768 953.359375,1284.695312 
	C953.288391,1297.569946 953.338928,1310.445312 953.338928,1324.302979 
	C936.734558,1324.302979 920.867737,1324.302979 904.001465,1324.302979 
z"/>
<path fill="#FBFCFC" opacity="1.000000" stroke="none" 
	d="
M2285.408691,950.716248 
	C2289.929199,968.278503 2287.843262,985.320496 2287.830078,1002.204346 
	C2287.820312,1014.708862 2281.494385,1020.742737 2268.378662,1020.757141 
	C2250.872314,1020.776306 2233.128662,1023.200378 2215.463135,1017.293030 
	C2210.253418,996.286438 2210.857910,974.945679 2214.058105,953.479919 
	C2214.844482,948.204163 2217.316162,945.899597 2222.575195,945.922119 
	C2241.850098,946.004822 2261.126709,945.870056 2280.398438,946.137817 
	C2282.026611,946.160461 2283.621582,948.565369 2285.408691,950.716248 
z"/>
<path fill="#FDFCFC" opacity="1.000000" stroke="none" 
	d="
M2269.456787,1107.750732 
	C2289.247070,1110.249023 2285.653076,1109.523804 2287.296387,1124.014893 
	C2289.183105,1140.650391 2289.642090,1157.812378 2286.208252,1174.657715 
	C2285.263916,1179.290161 2283.522949,1181.444458 2278.652588,1182.094360 
	C2259.112549,1184.701294 2239.632080,1184.973877 2220.164551,1181.707764 
	C2213.085449,1180.519897 2211.945312,1179.344727 2211.891602,1171.788940 
	C2211.768555,1154.482910 2211.827393,1137.173340 2212.049316,1119.868164 
	C2212.156250,1111.511230 2212.749756,1110.322876 2220.827881,1109.737427 
	C2236.694336,1108.587158 2252.624756,1108.323975 2269.456787,1107.750732 
z"/>
<path fill="#F9FBFB" opacity="1.000000" stroke="none" 
	d="
M2340.557861,1489.590698 
	C2340.558105,1480.984375 2340.547119,1473.323975 2340.565186,1465.663574 
	C2340.570557,1463.333740 2340.477295,1460.984253 2340.735107,1458.677856 
	C2342.247559,1445.151611 2345.860352,1441.258911 2359.508301,1441.023926 
	C2373.459229,1440.783936 2387.439453,1441.451538 2401.386719,1442.131714 
	C2408.098633,1442.459106 2409.714844,1444.163330 2409.765869,1450.691772 
	C2409.915039,1469.673340 2409.895508,1488.660645 2409.579834,1507.639648 
	C2409.463623,1514.621704 2407.515137,1516.355347 2400.288330,1516.451416 
	C2384.304443,1516.663940 2368.315674,1516.500732 2352.328857,1516.511475 
	C2347.285889,1516.514893 2344.240967,1514.472900 2343.570801,1509.092407 
	C2342.796875,1502.878418 2341.581543,1496.719482 2340.557861,1489.590698 
z"/>
<path fill="#F9FAFA" opacity="1.000000" stroke="none" 
	d="
M2214.571289,1339.752930 
	C2214.700195,1322.210571 2214.829102,1305.634644 2214.963135,1288.427124 
	C2237.979492,1288.427124 2259.861328,1288.427124 2282.464111,1288.427124 
	C2284.240234,1312.307373 2283.874756,1335.793579 2282.679932,1360.071045 
	C2276.032715,1360.489380 2269.777100,1361.115723 2263.512207,1361.227295 
	C2251.854004,1361.435059 2240.189941,1361.394043 2228.528809,1361.362549 
	C2216.035400,1361.328857 2215.510742,1360.796997 2214.910889,1348.703247 
	C2214.779053,1346.042847 2214.683838,1343.380615 2214.571289,1339.752930 
z"/>
<path fill="#FBFCFC" opacity="1.000000" stroke="none" 
	d="
M2345.092529,1360.782227 
	C2343.472900,1359.686035 2342.144531,1358.698364 2342.139404,1357.703491 
	C2342.021240,1335.477905 2342.048828,1313.251709 2342.048828,1291.233154 
	C2362.324463,1285.477905 2388.846436,1285.211060 2410.037109,1290.504517 
	C2410.037109,1313.156982 2410.037109,1335.964478 2410.037109,1359.558472 
	C2388.879883,1363.471558 2367.430176,1361.882324 2345.092529,1360.782227 
z"/>
<path fill="#FBFCFC" opacity="1.000000" stroke="none" 
	d="
M2215.862061,1511.976562 
	C2215.028564,1493.557251 2213.999512,1475.986938 2214.021240,1458.417969 
	C2214.035889,1446.706543 2217.775635,1442.584961 2229.381592,1442.266235 
	C2244.886719,1441.840576 2260.484619,1440.567139 2275.962402,1443.948120 
	C2281.353760,1445.125732 2283.327881,1447.858765 2283.367920,1452.731445 
	C2283.514893,1470.680908 2283.724854,1488.632080 2283.598145,1506.580322 
	C2283.547607,1513.735474 2281.229004,1515.797241 2273.716064,1515.917480 
	C2257.429688,1516.178589 2241.136719,1516.357910 2224.852539,1516.137573 
	C2221.925049,1516.098022 2219.025635,1513.982910 2215.862061,1511.976562 
z"/>
<path fill="#F9FAFA" opacity="1.000000" stroke="none" 
	d="
M2534.086914,1514.727051 
	C2515.738770,1515.379028 2498.151611,1515.607178 2480.564209,1515.801392 
	C2476.372070,1515.847778 2474.618896,1514.046753 2473.278564,1509.626099 
	C2471.216309,1502.826172 2470.090820,1496.185425 2470.250732,1489.134888 
	C2470.468750,1479.501587 2469.994873,1469.847046 2470.383301,1460.224487 
	C2470.929443,1446.702026 2476.497070,1441.837036 2488.370117,1441.051880 
	C2499.288818,1440.329834 2510.294189,1440.879150 2521.260742,1440.961060 
	C2522.897461,1440.973267 2524.563965,1441.370239 2526.160156,1441.798584 
	C2536.828125,1444.661499 2538.093018,1445.293823 2538.403320,1456.538452 
	C2538.869873,1473.441162 2538.303223,1490.378784 2537.853516,1507.292969 
	C2537.790771,1509.650635 2535.895264,1511.959351 2534.086914,1514.727051 
z"/>
<path fill="#F9FBFB" opacity="1.000000" stroke="none" 
	d="
M2502.010986,1361.825317 
	C2492.424561,1361.825317 2483.830811,1361.825317 2474.550781,1361.825317 
	C2470.529297,1336.930298 2470.633789,1313.079346 2474.221436,1288.652588 
	C2493.122803,1286.382080 2511.861084,1285.974976 2530.696533,1287.977173 
	C2535.987549,1288.539673 2538.439941,1291.005615 2538.986572,1296.005493 
	C2539.238770,1298.312988 2539.926758,1300.605347 2539.921875,1302.903442 
	C2539.889648,1318.842163 2539.940918,1334.786255 2539.522949,1350.716919 
	C2539.286133,1359.747192 2537.956787,1360.898926 2528.893311,1361.336182 
	C2520.275635,1361.751953 2511.634766,1361.681885 2502.010986,1361.825317 
z"/>
<path fill="#A3CBE7" opacity="1.000000" stroke="none" 
	d="
M1789.749268,849.797119 
	C1787.767822,849.718811 1786.589478,849.646301 1785.411255,849.573792 
	C1785.252808,849.026428 1785.094360,848.479065 1784.935913,847.931702 
	C1803.385254,836.450928 1821.999268,825.224243 1840.238037,813.418152 
	C1858.603760,801.529907 1876.596802,789.065735 1895.546021,776.320618 
	C1895.721191,778.672302 1896.016846,780.754700 1896.009521,782.836060 
	C1895.942993,801.799561 1895.830078,820.762878 1895.717407,839.726196 
	C1895.647949,851.406006 1894.712524,852.424316 1883.324341,852.152710 
	C1852.399292,851.415161 1821.476196,850.592041 1789.749268,849.797119 
z"/>
<path fill="#132742" opacity="1.000000" stroke="none" 
	d="
M2122.560547,2191.772217 
	C2126.521729,2218.117676 2111.049072,2240.924316 2086.328125,2246.247314 
	C2058.927490,2252.147217 2033.512329,2237.602539 2026.169189,2211.559326 
	C2020.841309,2192.664062 2024.384399,2175.632812 2039.394775,2162.479980 
	C2054.755615,2149.020264 2072.644531,2146.154785 2091.483643,2154.330322 
	C2107.620850,2161.333740 2118.523438,2173.322021 2122.560547,2191.772217 
z"/>
<path fill="#132742" opacity="1.000000" stroke="none" 
	d="
M1203.281006,2233.286377 
	C1201.540161,2234.902100 1200.323242,2236.035156 1199.064453,2237.119385 
	C1179.494385,2253.980225 1158.662842,2251.906250 1139.946533,2237.832520 
	C1121.011108,2223.593994 1114.555664,2197.349365 1124.382324,2177.083008 
	C1132.999146,2159.312012 1154.302979,2149.146240 1175.719971,2152.586182 
	C1197.254150,2156.044922 1214.375000,2172.939453 1218.635864,2194.349121 
	C1219.937134,2200.887695 1219.395508,2207.173340 1216.519897,2212.762695 
	C1212.916870,2219.765869 1208.086182,2226.136963 1203.281006,2233.286377 
z"/>
<path fill="#7AB3DA" opacity="1.000000" stroke="none" 
	d="
M2263.909180,1940.580811 
	C2273.717285,1962.440063 2263.980713,1986.546997 2246.553223,1998.359497 
	C2218.709473,2017.232910 2177.985107,2001.207886 2169.955322,1968.564697 
	C2162.392090,1937.818115 2182.563232,1909.325195 2216.228027,1908.767822 
	C2236.152344,1908.437988 2251.522705,1919.040894 2261.901611,1936.263916 
	C2262.585449,1937.398926 2263.082764,1938.646240 2263.909180,1940.580811 
z"/>
  </g>
  <text x="112" y="67" font-family="system-ui, -apple-system, 'Segoe UI', Helvetica, Arial, sans-serif" font-size="60" font-weight="700" fill="#F8FAFC">Fordje</text>
</svg>